<svg xmlns="http://www.w3.org/2000/svg" version="1.1" xmlns:xlink="http://www.w3.org/1999/xlink" xmlns:svgjs="http://svgjs.dev/svgjs" viewBox="0 0 600 600"><path d="M413.2845153808594,181.0669403076172C387.6569010416667,158.18514251708984,324.89538828531903,157.00836435953775,283.05438232421875,166.9456024169922C241.2133763631185,176.88284047444662,175.57529958089194,211.7939224243164,162.2384796142578,240.69036865234375C148.9016596476237,269.5868148803711,174.13701629638672,309.9895528157552,203.03346252441406,340.32427978515625C231.9299087524414,370.6590067545573,303.0596237182617,411.06170145670575,335.6171569824219,422.69873046875C368.17469024658203,434.33575948079425,381.5115102132161,429.8901774088542,398.378662109375,410.1464538574219C415.2458140055339,390.40273030598956,434.33575948079425,342.4163080851237,436.820068359375,304.23638916015625C439.30437723795575,266.0564702351888,438.91212972005206,203.94873809814453,413.2845153808594,181.0669403076172C387.6569010416667,158.18514251708984,324.89538828531903,157.00836435953775,283.05438232421875,166.9456024169922" fill="url(&quot;#SvgjsLinearGradient1000&quot;)" transform="matrix(2.0789281794113688,0,0,-2.0789281794113688,-319.9156306161107,913.350777913334)" stroke-width="0" stroke="hsl(340, 45%, 30%)"></path><defs><linearGradient id="SvgjsLinearGradient1000"><stop stop-color="hsl(335, 77%, 60%)" offset="0"></stop><stop stop-color="hsl(335, 77%, 80%)" offset="1"></stop></linearGradient><linearGradient id="SvgjsLinearGradient1001"><stop stop-color="hsl(340, 45%, 50%)" offset="0"></stop><stop stop-color="hsl(340, 45%, 80%)" offset="1"></stop></linearGradient></defs><path d="M302.66735548350186 164.59204482234668C277.0397411443092 141.71024703181934 214.27822838796152 140.53346887426724 172.43722242686124 150.47070693172168C130.596216465761 160.40794498917612 64.95813968353443 195.3190269390459 51.6213197169003 224.21547316707324C38.28449975026618 253.11191939510059 63.51985639902921 293.5146573304847 92.41630262705655 323.84938429988574C121.3127488550839 354.1841112692868 192.4424638209042 394.58680597143524 224.99999708506436 406.2238349834795C257.5575303492245 417.86086399552374 270.8943503158586 413.4152819235837 287.7615022120175 393.67155837215137C304.62865410817636 373.92783482071906 323.71859958343674 325.9414125998532 326.2029084620175 287.76149367488574C328.68721734059824 249.58157474991827 328.29496982269455 187.47384261287402 302.66735548350186 164.59204482234668C277.0397411443092 141.71024703181934 214.27822838796152 140.53346887426724 172.43722242686124 150.47070693172168 " fill-opacity="1" fill="url(&quot;#SvgjsLinearGradient1001&quot;)" opacity="1" stroke-opacity="1" stroke-width="0" stroke="hsl(340, 45%, 30%)" transform="matrix(1.87623268191876,-1.0415183615102075e-16,1.0415183615102075e-16,1.87623268191876,-89.35747414447098,-169.08103394235883)"></path></svg>